<svg width="134" height="50" viewBox="0 0 134 50" fill="none" xmlns="http://www.w3.org/2000/svg">
<rect x="-0.000244141" width="134" height="50" rx="8" fill="#31B447"/>
<path d="M83.2721 9.63892H75.0642V41.4444H83.2721V37.3404H79.1681V27.0806H83.2721V24.0027H79.1681V13.7428H83.2721V9.63892Z" fill="white"/>
<path fill-rule="evenodd" clip-rule="evenodd" d="M91.4792 41.4444V27.0807H95.5832V41.4444H99.6871V9.63898H87.3753V41.4444H91.4792ZM95.5846 24.0028H91.4806V12.717H95.5846V24.0028Z" fill="white"/>
<path d="M112 9.63898H103.792V41.4444H112V37.3405H107.896V13.7429H112V9.63898Z" fill="white"/>
<mask id="path-5-outside-1_1:17" maskUnits="userSpaceOnUse" x="21.9998" y="10" width="31" height="32" fill="black">
<rect fill="white" x="21.9998" y="10" width="31" height="32"/>
<path fill-rule="evenodd" clip-rule="evenodd" d="M38.2069 34.9071L44.5708 28.5431C44.9613 28.1526 44.9613 27.5195 44.5708 27.1289C44.1803 26.7384 43.5471 26.7384 43.1566 27.1289L38.4998 31.7858L38.4998 11H36.4998L36.4998 31.7858L31.8429 27.1289C31.4524 26.7384 30.8192 26.7384 30.4287 27.1289C30.0382 27.5195 30.0382 28.1526 30.4287 28.5431L36.7926 34.9071C37.1832 35.2976 37.8163 35.2976 38.2069 34.9071ZM22.9998 36.0001V27.6751H24.9998V36.0001C24.9998 37.1047 25.8952 38.0001 26.9998 38.0001H47.9998C49.1043 38.0001 49.9998 37.1047 49.9998 36.0001V27.6751H51.9998V36.0001C51.9998 38.2093 50.2089 40.0001 47.9998 40.0001H26.9998C24.7906 40.0001 22.9998 38.2093 22.9998 36.0001Z"/>
</mask>
<path fill-rule="evenodd" clip-rule="evenodd" d="M38.2069 34.9071L44.5708 28.5431C44.9613 28.1526 44.9613 27.5195 44.5708 27.1289C44.1803 26.7384 43.5471 26.7384 43.1566 27.1289L38.4998 31.7858L38.4998 11H36.4998L36.4998 31.7858L31.8429 27.1289C31.4524 26.7384 30.8192 26.7384 30.4287 27.1289C30.0382 27.5195 30.0382 28.1526 30.4287 28.5431L36.7926 34.9071C37.1832 35.2976 37.8163 35.2976 38.2069 34.9071ZM22.9998 36.0001V27.6751H24.9998V36.0001C24.9998 37.1047 25.8952 38.0001 26.9998 38.0001H47.9998C49.1043 38.0001 49.9998 37.1047 49.9998 36.0001V27.6751H51.9998V36.0001C51.9998 38.2093 50.2089 40.0001 47.9998 40.0001H26.9998C24.7906 40.0001 22.9998 38.2093 22.9998 36.0001Z" fill="white"/>
<path d="M44.5708 27.1289L45.2779 26.4218L45.2779 26.4218L44.5708 27.1289ZM43.1566 27.1289L42.4495 26.4218L42.4495 26.4218L43.1566 27.1289ZM38.4998 31.7858L37.4998 31.7858L37.4998 34.2L39.2069 32.4929L38.4998 31.7858ZM38.4998 11L39.4998 11L39.4998 10H38.4998V11ZM36.4998 11V10H35.4998L35.4998 11L36.4998 11ZM36.4998 31.7858L35.7926 32.4929L37.4998 34.2L37.4998 31.7858L36.4998 31.7858ZM31.8429 27.1289L32.55 26.4218L32.55 26.4218L31.8429 27.1289ZM30.4287 28.5431L31.1358 27.836L31.1358 27.836L30.4287 28.5431ZM36.7926 34.9071L36.0855 35.6142L36.0855 35.6142L36.7926 34.9071ZM22.9998 27.6751V26.6751H21.9998V27.6751H22.9998ZM24.9998 27.6751H25.9998V26.6751H24.9998V27.6751ZM49.9998 27.6751V26.6751H48.9998V27.6751H49.9998ZM51.9998 27.6751H52.9998V26.6751H51.9998V27.6751ZM43.8637 27.836L37.4998 34.2L38.914 35.6142L45.2779 29.2503L43.8637 27.836ZM43.8637 27.836V27.836L45.2779 29.2503C46.059 28.4692 46.059 27.2029 45.2779 26.4218L43.8637 27.836ZM43.8637 27.836H43.8637L45.2779 26.4218C44.4969 25.6408 43.2306 25.6408 42.4495 26.4218L43.8637 27.836ZM39.2069 32.4929L43.8637 27.836L42.4495 26.4218L37.7926 31.0787L39.2069 32.4929ZM37.4998 11L37.4998 31.7858L39.4998 31.7858L39.4998 11L37.4998 11ZM36.4998 12H38.4998V10H36.4998V12ZM37.4998 31.7858L37.4998 11L35.4998 11L35.4998 31.7858L37.4998 31.7858ZM31.1358 27.836L35.7926 32.4929L37.2069 31.0787L32.55 26.4218L31.1358 27.836ZM31.1358 27.836L31.1358 27.836L32.55 26.4218C31.769 25.6408 30.5026 25.6408 29.7216 26.4218L31.1358 27.836ZM31.1358 27.836L31.1358 27.836L29.7216 26.4218C28.9405 27.2029 28.9405 28.4692 29.7216 29.2503L31.1358 27.836ZM37.4998 34.2L31.1358 27.836L29.7216 29.2503L36.0855 35.6142L37.4998 34.2ZM37.4998 34.2H37.4998L36.0855 35.6142C36.8666 36.3953 38.1329 36.3953 38.914 35.6142L37.4998 34.2ZM21.9998 27.6751V36.0001H23.9998V27.6751H21.9998ZM24.9998 26.6751H22.9998V28.6751H24.9998V26.6751ZM25.9998 36.0001V27.6751H23.9998V36.0001H25.9998ZM26.9998 37.0001C26.4475 37.0001 25.9998 36.5524 25.9998 36.0001H23.9998C23.9998 37.657 25.3429 39.0001 26.9998 39.0001V37.0001ZM47.9998 37.0001H26.9998V39.0001H47.9998V37.0001ZM48.9998 36.0001C48.9998 36.5524 48.552 37.0001 47.9998 37.0001V39.0001C49.6566 39.0001 50.9998 37.657 50.9998 36.0001H48.9998ZM48.9998 27.6751V36.0001H50.9998V27.6751H48.9998ZM51.9998 26.6751H49.9998V28.6751H51.9998V26.6751ZM52.9998 36.0001V27.6751H50.9998V36.0001H52.9998ZM47.9998 41.0001C50.7612 41.0001 52.9998 38.7615 52.9998 36.0001H50.9998C50.9998 37.657 49.6566 39.0001 47.9998 39.0001V41.0001ZM26.9998 41.0001H47.9998V39.0001H26.9998V41.0001ZM21.9998 36.0001C21.9998 38.7615 24.2383 41.0001 26.9998 41.0001V39.0001C25.3429 39.0001 23.9998 37.657 23.9998 36.0001H21.9998Z" fill="white" mask="url(#path-5-outside-1_1:17)"/>
</svg>
