<svg width="138" height="138" fill="none" xmlns="http://www.w3.org/2000/svg"><path d="M56.5 7.217a25 25 0 0125 0l34.756 20.066a25 25 0 0112.5 21.65v40.133a25 25 0 01-12.5 21.651L81.5 130.783a25 25 0 01-25 0l-34.756-20.066a25 25 0 01-12.5-21.65V48.933a25 25 0 0112.5-21.65L56.5 7.216z" fill="#fff"/><path d="M128.756 88.532v.534a25 25 0 01-12.5 21.651L81.5 130.783a25 25 0 01-25 0l-34.756-20.066a25.18 25.18 0 01-1.668-1.053L17.5 101 26 68l7.5-12 22 22.5 27-40 46.256 50.032z" fill="#066C61"/><path d="M18.173 108.216a25.007 25.007 0 01-7.634-11.207L10.5 96.5c1.167-13 6.2-39.7 17-42.5 14-3.63 21 42.5 21 42.5s6.22-64.244 25.5-63c15.5 1 21.5 33 17.5 91.5l-.02.022-9.98 5.761a24.983 24.983 0 01-10.908 3.299c6.974-12.139 6.314-60.063 2.908-77.582-1.992 5.516-3.561 14-5.254 23.157-3.833 20.725-8.302 44.889-19.746 45.843a4.793 4.793 0 01-1.26-.063l-3.786-2.186C36.248 116.272 30.68 94.856 28.5 83c-.397 10.72-4.439 22.982-6.455 27.891l-.3-.174a23.6 23.6 0 01-.773-.465l-2.8-2.036z" fill="#B3DBC9"/></svg>